<?xml version="1.0" encoding="UTF-8"?>
<svg id="Layer_1" xmlns="http://www.w3.org/2000/svg" xmlns:xlink="http://www.w3.org/1999/xlink" version="1.1" viewBox="0 0 31.51 32.05">
  <!-- Generator: Adobe Illustrator 30.3.0, SVG Export Plug-In . SVG Version: 2.1.3 Build 182)  -->
  <defs>
    <style>
      .st0 {
        fill: url(#radial-gradient);
      }

      .st1 {
        fill: url(#radial-gradient1);
      }

      .st2 {
        fill: #d1d7e7;
      }
    </style>
    <radialGradient id="radial-gradient" cx="35.19" cy="-10.62" fx="35.19" fy="-10.62" r="46.7" gradientUnits="userSpaceOnUse">
      <stop offset=".54" stop-color="#5c96c5"/>
      <stop offset="1" stop-color="#000"/>
    </radialGradient>
    <radialGradient id="radial-gradient1" cx="15.62" cy="-.46" fx="15.62" fy="-.46" r="23.71" gradientUnits="userSpaceOnUse">
      <stop offset=".4" stop-color="#a7d1ef"/>
      <stop offset="1" stop-color="#000"/>
    </radialGradient>
  </defs>
  <path class="st2" d="M3.56,16L29.39,6.23c.44-.17.85.31.61.72l-13.8,23.93c-.23.41-.85.3-.93-.17l-1.67-10.1c-.03-.18-.16-.33-.33-.39l-9.69-3.27c-.45-.15-.46-.78-.02-.94Z"/>
  <path class="st0" d="M2.09,13.66L27.05,1.84c.43-.2.87.24.67.67l-11.82,24.96c-.2.42-.82.36-.94-.09l-2.48-9.93c-.04-.18-.18-.32-.36-.36l-9.93-2.48c-.46-.11-.52-.74-.09-.94Z"/>
  <path class="st1" d="M15.45,28.25s-.07,0-.1,0c-.43-.04-.77-.34-.87-.75l-2.48-9.93-9.93-2.48c-.42-.1-.71-.45-.75-.87-.04-.43.18-.82.57-1h0L26.84,1.38c.39-.18.83-.11,1.14.2.3.3.38.75.2,1.14l-11.82,24.96c-.17.36-.51.57-.9.57ZM2.31,14.11s0,0,0,0l9.93,2.48c.36.09.64.37.73.73l2.48,9.93L27.27,2.29,2.31,14.11Z"/>
</svg>